# xmcd CD database file
#
# Track frame offsets:
#	150
#	16860
#	44050
#	68745
#
# Disc length: 1157 seconds
#
# Revision: 0
# Processed by: cddbd v1.5.1PL0 Copyright (c) Steve Scherf et al.
# Submitted via: CDex 1.50
#
DISCID=2e048304
DTITLE=FEEL SO BAD - 曖昧な太陽(HOT RED)
DYEAR=1999
DGENRE=Rock
TTITLE0=曖昧な太陽
TTITLE1=したたかになれ(STUDIO LIVE '99)
TTITLE2=ときめきましょう(LIVE '99)
TTITLE3=未来はきっと眩しいワ(LIVE '99)
EXTD=YEAR: 1999
EXTT0=
EXTT1=
EXTT2=
EXTT3=
PLAYORDER=
